<svg xmlns="http://www.w3.org/2000/svg" width="82.36" height="32.653" viewBox="0 0 82.36 32.653">
  <g id="Grupo_1" data-name="Grupo 1" transform="translate(-1042.33 -43.423)">
    <rect id="Retângulo_3" data-name="Retângulo 3" width="16.014" height="2.08" transform="translate(1042.33 73.996)" fill="#fff"/>
    <rect id="Retângulo_4" data-name="Retângulo 4" width="16.014" height="2.08" transform="translate(1042.33 69.629)" fill="#fff"/>
    <rect id="Retângulo_5" data-name="Retângulo 5" width="6.863" height="2.08" transform="translate(1046.906 65.261)" fill="#fff"/>
    <rect id="Retângulo_6" data-name="Retângulo 6" width="6.863" height="2.08" transform="translate(1046.906 60.893)" fill="#fff"/>
    <rect id="Retângulo_7" data-name="Retângulo 7" width="6.863" height="2.08" transform="translate(1046.906 56.526)" fill="#fff"/>
    <rect id="Retângulo_8" data-name="Retângulo 8" width="6.863" height="2.08" transform="translate(1046.906 52.158)" fill="#fff"/>
    <rect id="Retângulo_9" data-name="Retângulo 9" width="16.014" height="2.08" transform="translate(1042.33 47.791)" fill="#fff"/>
    <rect id="Retângulo_10" data-name="Retângulo 10" width="16.014" height="2.08" transform="translate(1042.33 43.423)" fill="#fff"/>
    <path id="Caminho_1" data-name="Caminho 1" d="M1063.866,79.4v2.08h16.847a8.7,8.7,0,0,0,5.654-2.08Z" transform="translate(-3.234 -5.403)" fill="#fff"/>
    <path id="Caminho_2" data-name="Caminho 2" d="M1063.866,74.259v2.08h24.411a8.7,8.7,0,0,0,.867-2.08Z" transform="translate(-3.234 -4.631)" fill="#fff"/>
    <path id="Caminho_3" data-name="Caminho 3" d="M1069.25,69.12V71.2h6.863V69.12Z" transform="translate(-4.043 -3.859)" fill="#fff"/>
    <path id="Caminho_4" data-name="Caminho 4" d="M1069.25,58.841h0v2.08H1087.4a8.763,8.763,0,0,0,1.679-2.08Z" transform="translate(-4.043 -2.315)" fill="#fff"/>
    <path id="Caminho_5" data-name="Caminho 5" d="M1089.143,50.642a8.715,8.715,0,0,0-.867-2.08h-24.411v2.08h25.277Z" transform="translate(-3.234 -0.772)" fill="#fff"/>
    <path id="Caminho_6" data-name="Caminho 6" d="M1069.25,53.7v2.08h6.863V53.7Z" transform="translate(-4.043 -1.544)" fill="#fff"/>
    <path id="Caminho_7" data-name="Caminho 7" d="M1084.913,55.782h7.441a8.747,8.747,0,0,0,.254-2.08h-7.7Z" transform="translate(-6.395 -1.544)" fill="#fff"/>
    <path id="Caminho_8" data-name="Caminho 8" d="M1084.913,69.12V71.2h7.7a8.747,8.747,0,0,0-.254-2.08Z" transform="translate(-6.395 -3.859)" fill="#fff"/>
    <path id="Caminho_9" data-name="Caminho 9" d="M1087.4,63.98H1069.25v2.08h19.833A8.784,8.784,0,0,0,1087.4,63.98Z" transform="translate(-4.043 -3.087)" fill="#fff"/>
    <path id="Caminho_10" data-name="Caminho 10" d="M1086.367,45.5a8.7,8.7,0,0,0-5.654-2.08h-16.847V45.5h22.5Z" transform="translate(-3.234 0)" fill="#fff"/>
    <rect id="Retângulo_11" data-name="Retângulo 11" width="11.439" height="2.08" transform="translate(1088.085 73.996)" fill="#fff"/>
    <rect id="Retângulo_12" data-name="Retângulo 12" width="11.439" height="2.08" transform="translate(1088.085 69.629)" fill="#fff"/>
    <rect id="Retângulo_13" data-name="Retângulo 13" width="6.863" height="2.08" transform="translate(1092.661 65.261)" fill="#fff"/>
    <rect id="Retângulo_14" data-name="Retângulo 14" width="6.863" height="2.08" transform="translate(1092.661 60.893)" fill="#fff"/>
    <rect id="Retângulo_15" data-name="Retângulo 15" width="11.439" height="2.08" transform="translate(1113.251 73.996)" fill="#fff"/>
    <rect id="Retângulo_16" data-name="Retângulo 16" width="11.439" height="2.08" transform="translate(1113.251 69.629)" fill="#fff"/>
    <rect id="Retângulo_17" data-name="Retângulo 17" width="6.863" height="2.08" transform="translate(1113.251 65.261)" fill="#fff"/>
    <rect id="Retângulo_18" data-name="Retângulo 18" width="6.863" height="2.08" transform="translate(1113.251 60.893)" fill="#fff"/>
    <path id="Caminho_11" data-name="Caminho 11" d="M1124.6,60.921h6.863v-2.08h-12.865l-.722,2.08h6.024l.7-1.981Z" transform="translate(-11.344 -2.315)" fill="#fff"/>
    <path id="Caminho_12" data-name="Caminho 12" d="M1131.726,53.7h-11.35l-.721,2.08h12.071Z" transform="translate(-11.612 -1.544)" fill="#fff"/>
    <path id="Caminho_13" data-name="Caminho 13" d="M1123.943,43.423l-.721,2.08h13.616v-2.08Z" transform="translate(-12.147 0)" fill="#fff"/>
    <path id="Caminho_14" data-name="Caminho 14" d="M1117.578,81.467l.73-2.069h-1.461Z" transform="translate(-11.19 -5.402)" fill="#fff"/>
    <path id="Caminho_15" data-name="Caminho 15" d="M1115.768,76.339h3.076l.734-2.08h-4.545Z" transform="translate(-10.918 -4.631)" fill="#fff"/>
    <path id="Caminho_16" data-name="Caminho 16" d="M1113.953,71.2h6.16l.734-2.08h-7.629Z" transform="translate(-10.645 -3.859)" fill="#fff"/>
    <path id="Caminho_17" data-name="Caminho 17" d="M1112.139,66.06h9.244l.734-2.08H1111.4Z" transform="translate(-10.373 -3.087)" fill="#fff"/>
    <path id="Caminho_18" data-name="Caminho 18" d="M1101.555,55.782h12.071l-.722-2.08h-11.35Z" transform="translate(-8.894 -1.544)" fill="#fff"/>
    <path id="Caminho_19" data-name="Caminho 19" d="M1121.438,50.642h15.131v-2.08h-14.41Z" transform="translate(-11.88 -0.772)" fill="#fff"/>
    <path id="Caminho_20" data-name="Caminho 20" d="M1110.581,48.562h-14.41v2.08H1111.3Z" transform="translate(-8.085 -0.772)" fill="#fff"/>
    <path id="Caminho_21" data-name="Caminho 21" d="M1109.066,43.423h-12.9V45.5h13.616Z" transform="translate(-8.085 0)" fill="#fff"/>
    <path id="Caminho_22" data-name="Caminho 22" d="M1115.141,60.921l-.721-2.08h-12.865v2.08h6.863V58.947l.7,1.974Z" transform="translate(-8.894 -2.315)" fill="#fff"/>
  </g>
</svg>
